<svg xmlns="http://www.w3.org/2000/svg" viewBox="-76 80 1176 1040">
  <g fill="#ffffff" transform="matrix(-1 0 0 1 1024 0)"><path d="M682.5 1120q-15.5 0-36.5-30c-14-20-28.833-43.67-44.5-71-11.333 1.33-21.583 2.17-30.75 2.5s-19.25.5-30.25.5q-124.5 0-218.25-42.75t-146-120.5T124 676q0-20 1.5-37L83 578l-5.5-89.5q27.5-39 67.25-59.75T231.5 408q36.5 0 71.5 16t66.25 42.5T424 525l37 20.5q17.5-24 46.25-61.25t64-80.5a2061 2061 0 0 1 73-84.75Q682 277.5 718 245.5q59-53 115.25-89.75t107-56.25T1033 80q30.495 0 48.75 16.25c12.17 10.833 18.25 24.583 18.25 41.25q0 11-3 21.75c-2 7.167-5.67 14.583-11 22.25 7.67 13.667 11.5 27.833 11.5 42.5 0 16.333-3.67 33.5-11 51.5s-16.5 33-27.5 45q0 50.5-36.75 104.5T918.5 522q-3 30-17.25 57T858 631q0 28-11.5 57.75t-38 56.25q13 .5 22.5 1a362 362 0 0 0 19 .5q43 0 75 8.25T957 788q0 8-5.5 22.75t-15 32.75q-5.5 10.5-11 34.5t-18 55.25-39 64.25q-36.5 45.495-72.75 62.25C771.583 1070.92 752.667 1080 739 1087c-11.333 5.67-20.75 12.58-28.25 20.75S693.833 1120 682.5 1120m-576-531q-20-2.5-44.25-8.75T15.5 566t-37-15.25T-36 539q0-6.5 34.5-21.75T98 479q11 40.5 11 74 0 8.5-.5 17.25t-2 18.75m97.5-24.5q-11 0-18.75-7.75T177.5 538q0-10.5 7.75-18.25T204 512q10.5 0 18.25 7.75T230 538q0 11-7.75 18.75T204 564.5M686 1076c15.333-12.33 29.167-21.42 41.5-27.25s24.167-11.17 35.5-16q17-7.245 35-20.25c12-8.67 25.167-22 39.5-40q23-28.5 33.75-55.75t16.5-50.75T901 825.5l13.5-30.5q-4-1.5-19.75-5T850 786.5q-25 0-44.25-2.5t-35.25-7.5q-31.5 20-62 30T644 819l-2-40q40-2 76.75-19t62.5-43.5 33.25-57q-19.5 11-41.5 17.75a242.4 242.4 0 0 1-45 9.25l-2.5-40q30.5-3 62.25-18.5t55.5-38.25T874 543.5q-45.5 19.5-103 26l-4-40q51.5-5.5 99.25-26.5t85.5-56 58.25-82.5q-38.5 28.5-82.25 49.25T836 445.5l-9-39q46-10.5 87.5-30.5t73.75-45.25c21.5-16.833 38.42-34.167 50.75-52s18.5-34.75 18.5-50.75c0-6.333-.67-11.5-2-15.5-14 11.333-32.42 24.167-55.25 38.5Q966 272.5 913.5 300.5l-19.5-35 45-24.5q39.5-21.5 66.5-40.5c18-12.667 31.58-24.167 40.75-34.5s13.75-19.167 13.75-26.5c0-6-2.58-10.75-7.75-14.25s-13.08-5.25-23.75-5.25q-52 0-127.75 42T744.5 275.5q-38 33.5-79 78.5t-79.25 92-68.75 87.25T470 597.5L406 562q-6.5-3.5-14.75-11t-17.75-20q-13.5-18-35.25-37.25t-49-32.5T231.5 448q-34.5 0-63 13.25t-50 39.75q6 18.5 6 37.5 0 6.5-.5 12.75T122 564l44.5 64.5a847 847 0 0 0-1.75 22.75Q164 663 164 676q0 93.5 46.75 162.25t131.5 106.25T540.5 982q12.5 0 26.5-.5a859 859 0 0 0 28.5-1.5q14.5-1 27.5-2.5c16.667 28.33 29.917 50.17 39.75 65.5q14.75 22.995 23.25 33M466 565.5 401 532q-7-13.5-12-32t-5-36q0-47 15.25-98.75t41.25-100.5T499 176.5t66.75-62.75T632 90.5q41 0 41 41 0 17-9.25 37.25T640.5 207.5q18.5 3.5 29 19.75T680 270q0 15-3 35.5ZM253 293q37 0 64 14.75t27 32.75q0 10.5-10.75 16T304.5 362q-21.5 0-50.25-4t-56-7.75T153 346.5q-15.5 0-28.25.75t-23.25 2.25q-12 14-21.75 27.75T63 405a478 478 0 0 1 31.5-4q16-1.5 30-1.5 19 0 36 3t36 10l-52.5 30q-11-3-22.25-5t-19.75-2q-12.5 0-25 1.5t-29.5 6.5q-6 19.5-8.5 39.75t-2.5 41.25q0 61 33.5 133l-36 17Q-3.5 597-3.5 524.5q0-23 7.5-48.5t20.5-51.5l-5.5-16q-7-20.5-22.5-47a2863 2863 0 0 0-32.25-53.75q-16.75-27.25-28.5-51T-76 218q0-14 12-14 23.5 0 47.25 27.5t41.25 69.25 22 84.75A595 595 0 0 1 64.25 358Q73.5 344.5 84 331q1.5-12.5 2.5-27.5t1-24.5q0-30-6.5-64t-6.5-60.5q0-20.5 5.75-34.5T103 106q16.5 0 23.5 20.75t7 50.25q0 24-5.25 56.25T113 295q10.5-13 21.5-25t22-23q40-40.5 77.25-69.75T296.5 148q13 0 18.75 6.5T321 171q0 17.5-21.5 37t-53 39-62 37-48 31.5q29.5-10 61.75-16.25T253 293"/></g>
</svg>
